<svg xmlns="http://www.w3.org/2000/svg" xmlns:xlink="http://www.w3.org/1999/xlink" version="1.1" id="Layer_1" x="0px" y="0px" viewBox="0 0 512 512" style="enable-background:new 0 0 512 512;" xml:space="preserve" fill="#ffffff"><g><path d="M353.16,479.32c-0.61,18.5-16.03,32.68-33.92,32.68c-0.61,0-1.23,0-1.23,0c-18.5-0.61-33.3-16.65-32.69-35.15   c3.7-87.57-17.27-152.94-62.28-195.49c-71.53-67.22-183.77-56.12-185.01-56.12c-18.5,1.85-35.15-11.71-37.62-30.21   c-1.85-18.5,11.1-35.15,30.21-37.62c5.55-0.62,143.69-14.8,238.66,73.39C329.73,287.53,357.48,371.39,353.16,479.32z M86.75,347.96   c-20.97,0-41.94,8.63-56.74,23.43c-14.8,14.8-23.43,35.77-23.43,56.74c0,20.96,8.63,41.93,23.43,56.74   c14.8,14.8,35.77,23.43,56.74,23.43c20.96,0,41.93-8.64,56.73-23.43c14.8-14.8,23.44-35.77,23.44-56.74   c0-20.97-8.64-41.93-23.44-56.74C128.69,356.59,107.72,347.96,86.75,347.96z M386.47,109.3C245.24-22.06,39.27,1.38,30.02,1.99   C11.52,4.46-2.05,21.11,0.42,39.61c2.46,18.5,19.12,32.07,37.62,29.6c1.85,0,183.77-20.35,302.18,89.42   c74.62,69.07,109.16,175.76,102.99,317.6c-0.62,18.5,13.57,34.53,32.68,35.15c0.61,0,1.23,0,1.23,0c17.88,0,33.3-14.18,33.92-32.68   C518.44,317.13,476.5,192.55,386.47,109.3z"/></g></svg>